<svg width="30" height="30" viewBox="0 0 30 30" fill="none" xmlns="http://www.w3.org/2000/svg">
<path d="M9.42375 30C20.745 30 26.9381 18.4552 26.9381 8.46115C26.9381 8.13809 26.9381 7.81041 26.9269 7.48735C28.1326 6.41315 29.1732 5.08322 30 3.55987C28.8737 4.17103 27.6802 4.57383 26.4581 4.75519C27.7454 3.80825 28.7095 2.31833 29.1712 0.562339C27.9619 1.44412 26.6382 2.06312 25.2581 2.39224C24.3303 1.17621 23.1026 0.370621 21.7652 0.100265C20.4277 -0.17009 19.0551 0.109874 17.86 0.896792C16.6649 1.68371 15.714 2.93366 15.1546 4.45304C14.5952 5.97242 14.4585 7.67642 14.7656 9.3011C12.3183 9.15008 9.92403 8.36762 7.7382 7.00448C5.55238 5.64134 3.62378 3.72796 2.0775 1.38845C1.29251 3.05701 1.05295 5.03072 1.40746 6.90877C1.76197 8.78682 2.68398 10.4284 3.98625 11.5002C3.01039 11.4594 2.05598 11.1369 1.2 10.5587V10.6626C1.20168 12.4105 1.6937 14.1041 2.59289 15.4571C3.49208 16.8102 4.74328 17.7396 6.135 18.0883C5.60674 18.2674 5.06106 18.3567 4.51312 18.3537C4.12684 18.3551 3.74134 18.3111 3.36188 18.2222C3.75522 19.7268 4.52114 21.0424 5.55234 21.9846C6.58354 22.9268 7.82838 23.4485 9.1125 23.4765C6.93104 25.5852 4.23638 26.7288 1.4625 26.7233C0.973726 26.7258 0.485293 26.6911 0 26.6194C2.81534 28.8284 6.08493 30.0013 9.42375 30Z" fill="white"/>
</svg>
