<svg width="18" height="20" viewBox="0 0 18 20" fill="none" xmlns="http://www.w3.org/2000/svg">
<g clip-path="url(#clip0_1_615)">
<path d="M5.0458 0C5.73705 0 6.29553 0.558594 6.29553 1.25V2.5H11.2944V1.25C11.2944 0.558594 11.8529 0 12.5442 0C13.2354 0 13.7939 0.558594 13.7939 1.25V2.5H15.6685C16.7034 2.5 17.5431 3.33984 17.5431 4.375V6.25H0.046875V4.375C0.046875 3.33984 0.886537 2.5 1.92147 2.5H3.79607V1.25C3.79607 0.558594 4.35454 0 5.0458 0ZM0.046875 7.5H17.5431V18.125C17.5431 19.1602 16.7034 20 15.6685 20H1.92147C0.886537 20 0.046875 19.1602 0.046875 18.125V7.5ZM2.54634 10.625V11.875C2.54634 12.2188 2.82752 12.5 3.1712 12.5H4.42093C4.76461 12.5 5.0458 12.2188 5.0458 11.875V10.625C5.0458 10.2812 4.76461 10 4.42093 10H3.1712C2.82752 10 2.54634 10.2812 2.54634 10.625ZM7.54526 10.625V11.875C7.54526 12.2188 7.82645 12.5 8.17012 12.5H9.41985C9.76353 12.5 10.0447 12.2188 10.0447 11.875V10.625C10.0447 10.2812 9.76353 10 9.41985 10H8.17012C7.82645 10 7.54526 10.2812 7.54526 10.625ZM13.169 10C12.8254 10 12.5442 10.2812 12.5442 10.625V11.875C12.5442 12.2188 12.8254 12.5 13.169 12.5H14.4188C14.7624 12.5 15.0436 12.2188 15.0436 11.875V10.625C15.0436 10.2812 14.7624 10 14.4188 10H13.169ZM2.54634 15.625V16.875C2.54634 17.2188 2.82752 17.5 3.1712 17.5H4.42093C4.76461 17.5 5.0458 17.2188 5.0458 16.875V15.625C5.0458 15.2812 4.76461 15 4.42093 15H3.1712C2.82752 15 2.54634 15.2812 2.54634 15.625ZM8.17012 15C7.82645 15 7.54526 15.2812 7.54526 15.625V16.875C7.54526 17.2188 7.82645 17.5 8.17012 17.5H9.41985C9.76353 17.5 10.0447 17.2188 10.0447 16.875V15.625C10.0447 15.2812 9.76353 15 9.41985 15H8.17012ZM12.5442 15.625V16.875C12.5442 17.2188 12.8254 17.5 13.169 17.5H14.4188C14.7624 17.5 15.0436 17.2188 15.0436 16.875V15.625C15.0436 15.2812 14.7624 15 14.4188 15H13.169C12.8254 15 12.5442 15.2812 12.5442 15.625Z" fill="#307BC4"/>
</g>
<defs>
<clipPath id="clip0_1_615">
<rect width="17.59" height="20" fill="white"/>
</clipPath>
</defs>
</svg>
