<svg width="34" height="34" viewBox="0 0 34 34" fill="none" xmlns="http://www.w3.org/2000/svg">
<g clip-path="url(#clip0_1_42)">
<g clip-path="url(#clip1_1_42)">
<g clip-path="url(#clip2_1_42)">
<path d="M6.88993 22.6009C10.2562 26.6096 14.3083 29.7659 18.9334 31.9992C20.6943 32.8305 23.0492 33.8169 25.6728 33.9859C25.8355 33.993 25.9911 34 26.1538 34C27.9146 34 29.329 33.3941 30.4817 32.1471C30.4888 32.1401 30.5029 32.126 30.51 32.1119C30.9202 31.6188 31.3869 31.1749 31.8749 30.7029C32.2073 30.3858 32.5467 30.0547 32.872 29.7165C34.3784 28.1525 34.3784 26.1658 32.8579 24.6511L28.6077 20.4169C27.8863 19.6701 27.0236 19.2756 26.1184 19.2756C25.2132 19.2756 24.3433 19.6701 23.6008 20.4099L21.0691 22.932C20.8357 22.7982 20.5953 22.6784 20.3689 22.5657C20.0861 22.4248 19.8244 22.2909 19.591 22.143C17.2856 20.6846 15.1923 18.7824 13.191 16.3377C12.1797 15.0626 11.5008 13.9917 11.027 12.8997C11.6917 12.3009 12.3141 11.6738 12.9152 11.0609C13.1273 10.8425 13.3466 10.6241 13.5658 10.4057C14.3296 9.64484 14.7397 8.76418 14.7397 7.86947C14.7397 6.9747 14.3366 6.09405 13.5658 5.33319L11.4584 3.23373C11.2109 2.98715 10.9775 2.74762 10.737 2.50103C10.2703 2.02196 9.78237 1.5288 9.30144 1.08496C8.57304 0.373394 7.71738 0 6.81218 0C5.91402 0 5.05126 0.373394 4.29457 1.092L1.64969 3.7269C0.687911 4.68504 0.143375 5.84749 0.0302245 7.1931C-0.104141 8.87689 0.207021 10.6664 1.01322 12.8293C2.25079 16.1757 4.11777 19.2826 6.88993 22.6009ZM1.75577 7.34105C1.84062 6.40407 2.20129 5.62205 2.88019 4.94571L5.51093 2.32491C5.9211 1.93038 6.3737 1.72607 6.81218 1.72607C7.24353 1.72607 7.68202 1.93038 8.08509 2.339C8.55893 2.7758 9.00445 3.23373 9.48532 3.71985C9.72576 3.96643 9.97328 4.21301 10.2208 4.46664L12.3282 6.56608C12.7667 7.00292 12.993 7.44674 12.993 7.88352C12.993 8.32037 12.7667 8.76418 12.3282 9.20102C12.109 9.41942 11.8897 9.64484 11.6706 9.86323C11.0128 10.5255 10.3976 11.1525 9.71867 11.7514C9.70456 11.7654 9.69748 11.7725 9.68331 11.7866C9.09636 12.3713 9.18833 12.9279 9.32977 13.3506C9.3368 13.3717 9.34388 13.3858 9.35096 13.4069C9.89547 14.7103 10.6522 15.9502 11.8332 17.4298C13.9547 20.0365 16.1894 22.0584 18.6505 23.6154C18.9545 23.8127 19.2799 23.9677 19.5839 24.1227C19.8668 24.2636 20.1285 24.3974 20.3619 24.5454C20.3901 24.5594 20.4114 24.5736 20.4397 24.5877C20.673 24.7074 20.8993 24.7638 21.1256 24.7638C21.6914 24.7638 22.0591 24.4045 22.1793 24.2847L24.8242 21.6498C25.2344 21.2412 25.6799 21.0228 26.1184 21.0228C26.6558 21.0228 27.0943 21.3539 27.3701 21.6498L31.6345 25.891C32.4831 26.7364 32.476 27.6523 31.6133 28.547C31.3162 28.8641 31.0051 29.167 30.6726 29.4841C30.1777 29.9631 29.6614 30.4563 29.1947 31.0129C28.3814 31.8864 27.4126 32.2951 26.1608 32.2951C26.0406 32.2951 25.9133 32.288 25.7931 32.281C23.4735 32.133 21.3166 31.2313 19.6971 30.4633C15.2984 28.3427 11.4371 25.3344 8.23361 21.5159C5.59579 18.3527 3.82075 15.4078 2.64682 12.2516C1.91842 10.3141 1.64261 8.75715 1.75577 7.34105Z" fill="white"/>
</g>
</g>
</g>
<defs>
<clipPath id="clip0_1_42">
<rect width="34" height="34" fill="white"/>
</clipPath>
<clipPath id="clip1_1_42">
<rect width="34" height="34" fill="white"/>
</clipPath>
<clipPath id="clip2_1_42">
<rect width="34" height="34" fill="white"/>
</clipPath>
</defs>
</svg>
