<svg width="90" height="90" viewBox="0 0 90 90" fill="none" xmlns="http://www.w3.org/2000/svg">
<rect width="90" height="90" rx="15" fill="#307BC4"/>
<g clip-path="url(#clip0_1_357)">
<g clip-path="url(#clip1_1_357)">
<g clip-path="url(#clip2_1_357)">
<path d="M59.3072 41.1509C59.7831 41.2479 60.247 40.941 60.3443 40.4641C60.5616 39.3997 60.6716 38.3044 60.6716 37.2084C60.6716 28.2986 53.4447 21.0498 44.5616 21.0498C35.6785 21.0498 28.4517 28.2986 28.4517 37.2084C28.4517 46.1182 35.6785 53.367 44.5616 53.367C50.6164 53.367 56.1047 50.0123 58.8846 44.6123C59.1073 44.1798 58.9383 43.648 58.507 43.4247C58.0759 43.2013 57.5457 43.3711 57.3231 43.8034C54.846 48.6151 49.9562 51.6042 44.5618 51.6042C36.6477 51.6042 30.2092 45.1462 30.2092 37.2083C30.2092 29.2703 36.6477 22.8124 44.5618 22.8124C52.4758 22.8124 58.9143 29.2703 58.9143 37.2083C58.9143 38.1858 58.8162 39.1622 58.6226 40.1105C58.5253 40.5875 58.8319 41.0532 59.3072 41.1509Z" fill="white"/>
<path d="M54.3384 33.9304C54.2348 33.6106 53.9591 33.378 53.6274 33.3303L47.9004 32.5074L45.3505 27.2984C45.0592 26.6511 44.064 26.6513 43.7729 27.2984L41.2229 32.5073L35.496 33.3302C34.7914 33.408 34.4852 34.3579 35.0084 34.8349L39.1594 38.877L38.1699 44.5943C38.026 45.2884 38.83 45.8769 39.4462 45.5245L44.5616 42.8137L49.6771 45.5245C50.2923 45.8769 51.0976 45.2884 50.9534 44.5943L49.9638 38.877L54.1148 34.8349C54.3553 34.6009 54.442 34.2499 54.3384 33.9304ZM48.4066 37.9368C48.1981 38.1397 48.1032 38.4327 48.1528 38.7198L48.9156 43.1274L44.9721 41.0376C44.7152 40.9016 44.4079 40.9016 44.151 41.0376L40.2075 43.1274L40.9703 38.7198C41.02 38.4327 40.925 38.1397 40.7165 37.9368L37.5165 34.8205L41.9315 34.1861C42.2191 34.1448 42.4677 33.9638 42.5957 33.7021L44.5615 29.6866L46.5273 33.7021C46.6553 33.9636 46.904 34.1448 47.1914 34.1861L51.6066 34.8205L48.4066 37.9368Z" fill="white"/>
<path d="M69.221 67.3899L60.6324 52.469C64.3931 48.4868 66.7032 43.1132 66.7032 37.2082C66.7031 24.9625 56.7706 15 44.5617 15C40.8053 15 37.0943 15.9609 33.8295 17.7788C33.4052 18.0151 33.2522 18.5516 33.4877 18.9772C33.7232 19.4026 34.2582 19.5561 34.6825 19.32C37.6869 17.6471 41.103 16.7628 44.5617 16.7628C55.8015 16.7628 64.9457 25.9347 64.9457 37.2083C64.9457 48.4821 55.8015 57.6539 44.5617 57.6539C33.3219 57.6539 24.1777 48.4821 24.1777 37.2082C24.1777 31.1603 26.8264 25.4556 31.4449 21.5574C31.8162 21.244 31.8638 20.6879 31.5514 20.3156C31.2389 19.9431 30.6846 19.8951 30.3133 20.2087C25.2972 24.4427 22.4203 30.6387 22.4203 37.2082C22.4203 43.1233 24.7381 48.5053 28.5102 52.4896L26.0777 56.7153C25.4949 57.6937 27.0372 58.5982 27.5997 57.5968L29.811 53.7553C32.4563 56.1303 35.6722 57.8777 39.2244 58.7629L31.6417 71.9361L29.702 65.813C29.5646 65.3789 29.1199 65.1215 28.6763 65.2189L22.4197 66.5956L25.5491 61.1589C25.7917 60.7373 25.6478 60.1982 25.2275 59.9549C24.8071 59.7115 24.2698 59.8559 24.0272 60.2774L19.9021 67.4438C19.5107 68.0733 20.1322 68.9288 20.8513 68.7456L28.2698 67.1131L30.5696 74.3732C30.7706 75.0874 31.8169 75.2038 32.168 74.547L41.0395 59.1345C42.1868 59.3193 43.3629 59.4167 44.5614 59.4167C45.7696 59.4167 46.9551 59.3175 48.1114 59.1298L53.4396 68.3865C53.6023 68.6694 53.8977 68.8274 54.2014 68.8274C54.3504 68.8274 54.5016 68.7893 54.64 68.7091C55.0602 68.4656 55.2042 67.9267 54.9615 67.5051L49.9256 58.7562C53.4763 57.8666 56.69 56.1153 59.3324 53.737L66.7031 66.5419L60.4465 65.1652C60.0029 65.0676 59.5583 65.325 59.4207 65.7592L57.481 71.8822L57.0119 71.0672C56.7693 70.6457 56.2319 70.5013 55.8116 70.7447C55.3913 70.9882 55.2474 71.5272 55.49 71.9487L56.9546 74.4934C57.3059 75.1503 58.3521 75.0337 58.5531 74.3196L60.8529 67.0594L68.2714 68.6919C68.9912 68.8744 69.6121 68.0196 69.221 67.3899Z" fill="white"/>
</g>
</g>
</g>
<defs>
<clipPath id="clip0_1_357">
<rect width="50.42" height="59.98" fill="white" transform="translate(19.78 15)"/>
</clipPath>
<clipPath id="clip1_1_357">
<rect width="50.42" height="59.98" fill="white" transform="translate(19.78 15)"/>
</clipPath>
<clipPath id="clip2_1_357">
<rect width="50.418" height="59.98" fill="white" transform="translate(19.781 15)"/>
</clipPath>
</defs>
</svg>
