<svg width="28" height="28" viewBox="0 0 28 28" fill="none" xmlns="http://www.w3.org/2000/svg">
<g clip-path="url(#clip0_1_696)">
<path d="M0 14C3.37428e-07 21.7195 6.28053 28 14 28C21.7195 28 28 21.7195 28 14C28 6.28053 21.7195 -3.37429e-07 14 0C6.28053 3.37428e-07 -3.37429e-07 6.28053 0 14ZM26.25 14C26.25 20.7548 20.7548 26.25 14 26.25C7.24522 26.25 1.75 20.7548 1.75 14C1.75 7.24522 7.24522 1.75 14 1.75C20.7548 1.75 26.25 7.24522 26.25 14ZM13.3814 8.13137C13.7233 7.78947 14.2769 7.78947 14.6186 8.13137L18.9936 12.5064C19.1645 12.6772 19.25 12.9012 19.25 13.125C19.25 13.3488 19.1645 13.5728 18.9936 13.7436C18.6517 14.0855 18.0981 14.0855 17.7564 13.7436L14.875 10.8622V19.25C14.875 19.7332 14.4837 20.125 14 20.125C13.5163 20.125 13.125 19.7332 13.125 19.25V10.8622L10.2436 13.7436C9.90172 14.0855 9.34806 14.0855 9.00637 13.7436C8.66469 13.4017 8.66447 12.8481 9.00637 12.5064L13.3814 8.13137Z" fill="#307BC4"/>
</g>
<defs>
<clipPath id="clip0_1_696">
<rect width="28" height="28" fill="white"/>
</clipPath>
</defs>
</svg>
