<svg width="28" height="28" viewBox="0 0 28 28" fill="none" xmlns="http://www.w3.org/2000/svg">
<g clip-path="url(#clip0_1_711)">
<path d="M28 14C28 6.2805 21.7195 0 14 0C6.2805 0 0 6.2805 0 14C0 21.7195 6.2805 28 14 28C21.7195 28 28 21.7195 28 14ZM1.75 14C1.75 7.2452 7.2452 1.75 14 1.75C20.7548 1.75 26.25 7.2452 26.25 14C26.25 20.7548 20.7548 26.25 14 26.25C7.2452 26.25 1.75 20.7548 1.75 14ZM14.6186 19.8686C14.2767 20.2105 13.7231 20.2105 13.3814 19.8686L9.0064 15.4936C8.8355 15.3228 8.75 15.0988 8.75 14.875C8.75 14.6512 8.8355 14.4272 9.0064 14.2564C9.3483 13.9145 9.9019 13.9145 10.2436 14.2564L13.125 17.1378V8.75C13.125 8.2668 13.5163 7.875 14 7.875C14.4837 7.875 14.875 8.2668 14.875 8.75V17.1378L17.7564 14.2564C18.0983 13.9145 18.6519 13.9145 18.9936 14.2564C19.3353 14.5983 19.3355 15.1519 18.9936 15.4936L14.6186 19.8686Z" fill="#307BC4"/>
</g>
<defs>
<clipPath id="clip0_1_711">
<rect width="28" height="28" fill="white" transform="matrix(-1 0 0 -1 28 28)"/>
</clipPath>
</defs>
</svg>
