<svg width="426" height="448" viewBox="0 0 426 448" fill="none" xmlns="http://www.w3.org/2000/svg">
<g clip-path="url(#clip0_2018_151)">
<g filter="url(#filter0_d_2018_151)">
<path d="M212.854 81C180.903 99.4444 113.638 114.367 84 119.523V242.388C94.7281 323.637 174.373 354.65 212.854 360C308.008 346.225 338.599 275.853 342 242.388V119.523C294.19 113.219 235.982 91.2144 212.854 81Z" fill="#86BBF1"/>
<path d="M212.854 81C180.903 99.4444 113.638 114.367 84 119.523V242.388C94.7281 323.637 174.373 354.65 212.854 360C308.008 346.225 338.599 275.853 342 242.388V119.523C294.19 113.219 235.982 91.2144 212.854 81Z" stroke="white" stroke-width="11"/>
</g>
</g>
<g clip-path="url(#clip1_2018_151)">
<g clip-path="url(#clip2_2018_151)">
<g clip-path="url(#clip3_2018_151)">
<path d="M212.562 174.411C212.438 174.417 212.318 174.448 212.208 174.505C212.208 174.505 202.054 179.527 189.392 181.201C188.967 181.259 188.651 181.621 188.654 182.047V199.844C188.654 210.746 194.673 217.214 200.609 220.81C206.544 224.406 212.467 225.272 212.467 225.272C212.551 225.285 212.636 225.285 212.72 225.272C212.72 225.272 218.643 224.406 224.578 220.81C230.514 217.214 236.533 210.746 236.533 199.844V182.047C236.537 181.621 236.22 181.259 235.795 181.201C223.133 179.527 212.979 174.505 212.979 174.505C212.85 174.439 212.707 174.406 212.562 174.411ZM212.593 184.587C221.083 184.587 227.98 191.426 227.98 199.844C227.98 208.262 221.083 215.109 212.593 215.109C204.104 215.109 197.207 208.262 197.207 199.844C197.207 191.426 204.104 184.587 212.593 184.587ZM209.172 192.216V196.459H204.9C204.428 196.458 204.044 196.836 204.042 197.304V202.392C204.044 202.86 204.428 203.238 204.9 203.237H209.172V207.48C209.174 207.949 209.559 208.328 210.032 208.325H215.155C215.627 208.327 216.011 207.949 216.013 207.48V203.237H220.287C220.759 203.238 221.143 202.86 221.145 202.392V197.304C221.143 196.836 220.759 196.458 220.287 196.459H216.013V192.216C216.012 191.747 215.627 191.369 215.155 191.371H209.987C209.505 191.414 209.171 191.779 209.172 192.216Z" fill="white"/>
</g>
</g>
</g>
<rect width="160.62" height="43" transform="translate(132.78 230.41)" fill="white"/>
<path d="M135.802 264.41V239.456H144.234C146.192 239.456 147.792 239.809 149.035 240.516C150.286 241.214 151.212 242.161 151.813 243.355C152.414 244.549 152.715 245.881 152.715 247.351C152.715 248.822 152.414 250.158 151.813 251.36C151.22 252.562 150.302 253.521 149.059 254.236C147.816 254.943 146.224 255.296 144.283 255.296H138.239V252.615H144.185C145.526 252.615 146.602 252.384 147.414 251.921C148.227 251.458 148.816 250.832 149.181 250.044C149.555 249.248 149.742 248.351 149.742 247.351C149.742 246.352 149.555 245.459 149.181 244.671C148.816 243.883 148.223 243.265 147.402 242.819C146.582 242.364 145.493 242.136 144.137 242.136H138.824V264.41H135.802ZM157.193 264.41V245.694H159.971V248.521H160.166C160.507 247.595 161.124 246.844 162.018 246.267C162.911 245.69 163.919 245.402 165.04 245.402C165.251 245.402 165.515 245.406 165.832 245.414C166.148 245.422 166.388 245.434 166.551 245.451V248.375C166.453 248.351 166.23 248.314 165.88 248.265C165.539 248.208 165.178 248.18 164.796 248.18C163.886 248.18 163.074 248.371 162.359 248.753C161.652 249.126 161.092 249.646 160.677 250.312C160.271 250.97 160.068 251.722 160.068 252.566V264.41H157.193ZM176.993 264.8C175.303 264.8 173.821 264.398 172.545 263.594C171.278 262.79 170.287 261.665 169.572 260.219C168.866 258.773 168.512 257.083 168.512 255.15C168.512 253.2 168.866 251.498 169.572 250.044C170.287 248.59 171.278 247.461 172.545 246.657C173.821 245.853 175.303 245.451 176.993 245.451C178.683 245.451 180.161 245.853 181.428 246.657C182.704 247.461 183.695 248.59 184.401 250.044C185.116 251.498 185.474 253.2 185.474 255.15C185.474 257.083 185.116 258.773 184.401 260.219C183.695 261.665 182.704 262.79 181.428 263.594C180.161 264.398 178.683 264.8 176.993 264.8ZM176.993 262.217C178.276 262.217 179.332 261.888 180.161 261.23C180.99 260.572 181.603 259.707 182.001 258.635C182.399 257.562 182.598 256.401 182.598 255.15C182.598 253.899 182.399 252.733 182.001 251.653C181.603 250.572 180.99 249.699 180.161 249.033C179.332 248.367 178.276 248.034 176.993 248.034C175.709 248.034 174.653 248.367 173.825 249.033C172.996 249.699 172.383 250.572 171.985 251.653C171.587 252.733 171.388 253.899 171.388 255.15C171.388 256.401 171.587 257.562 171.985 258.635C172.383 259.707 172.996 260.572 173.825 261.23C174.653 261.888 175.709 262.217 176.993 262.217ZM190.253 264.41V239.456H193.275V250.568H206.581V239.456H209.603V264.41H206.581V253.249H193.275V264.41H190.253ZM223.11 264.8C221.306 264.8 219.751 264.402 218.443 263.606C217.143 262.802 216.14 261.681 215.433 260.243C214.734 258.797 214.385 257.116 214.385 255.198C214.385 253.281 214.734 251.592 215.433 250.13C216.14 248.659 217.123 247.514 218.382 246.693C219.649 245.865 221.127 245.451 222.817 245.451C223.792 245.451 224.754 245.613 225.705 245.938C226.655 246.263 227.52 246.791 228.3 247.522C229.08 248.245 229.702 249.203 230.165 250.398C230.628 251.592 230.859 253.062 230.859 254.809V256.027H216.432V253.541H227.935C227.935 252.485 227.724 251.543 227.301 250.714C226.887 249.886 226.294 249.232 225.522 248.753C224.759 248.273 223.857 248.034 222.817 248.034C221.672 248.034 220.681 248.318 219.844 248.887C219.015 249.447 218.378 250.178 217.931 251.08C217.484 251.982 217.261 252.948 217.261 253.98V255.637C217.261 257.051 217.504 258.249 217.992 259.232C218.487 260.206 219.174 260.95 220.051 261.461C220.928 261.965 221.948 262.217 223.11 262.217C223.865 262.217 224.547 262.111 225.157 261.9C225.774 261.681 226.306 261.356 226.753 260.925C227.2 260.487 227.545 259.942 227.788 259.293L230.567 260.072C230.274 261.015 229.783 261.843 229.092 262.558C228.402 263.265 227.549 263.817 226.533 264.215C225.518 264.605 224.377 264.8 223.11 264.8ZM240.741 264.849C239.555 264.849 238.479 264.625 237.512 264.179C236.545 263.724 235.778 263.07 235.209 262.217C234.64 261.356 234.356 260.316 234.356 259.098C234.356 258.025 234.567 257.156 234.99 256.49C235.412 255.816 235.977 255.288 236.683 254.906C237.39 254.524 238.17 254.24 239.023 254.053C239.884 253.858 240.749 253.704 241.618 253.59C242.756 253.444 243.678 253.334 244.384 253.261C245.099 253.18 245.619 253.046 245.944 252.859C246.277 252.672 246.443 252.347 246.443 251.884V251.787C246.443 250.584 246.114 249.65 245.457 248.984C244.807 248.318 243.82 247.985 242.496 247.985C241.123 247.985 240.046 248.286 239.267 248.887C238.487 249.488 237.938 250.13 237.622 250.812L234.892 249.837C235.38 248.7 236.03 247.814 236.842 247.181C237.662 246.539 238.556 246.092 239.522 245.84C240.497 245.581 241.456 245.451 242.398 245.451C242.999 245.451 243.69 245.524 244.47 245.67C245.257 245.808 246.017 246.096 246.748 246.535C247.487 246.974 248.101 247.636 248.588 248.521C249.075 249.407 249.319 250.593 249.319 252.079V264.41H246.443V261.876H246.297C246.102 262.282 245.777 262.716 245.322 263.179C244.868 263.643 244.262 264.036 243.507 264.361C242.751 264.686 241.829 264.849 240.741 264.849ZM241.18 262.266C242.317 262.266 243.275 262.042 244.055 261.595C244.843 261.149 245.436 260.572 245.834 259.865C246.24 259.158 246.443 258.415 246.443 257.635V255.003C246.322 255.15 246.054 255.284 245.639 255.406C245.233 255.519 244.762 255.621 244.226 255.71C243.698 255.791 243.182 255.865 242.678 255.93C242.183 255.986 241.781 256.035 241.472 256.076C240.725 256.173 240.026 256.332 239.376 256.551C238.735 256.762 238.215 257.083 237.817 257.514C237.427 257.936 237.232 258.513 237.232 259.244C237.232 260.243 237.601 260.998 238.341 261.51C239.088 262.014 240.034 262.266 241.18 262.266ZM257.443 239.456V264.41H254.568V239.456H257.443ZM270.85 245.694V248.131H261.151V245.694H270.85ZM263.977 241.21H266.853V259.049C266.853 259.861 266.971 260.47 267.206 260.877C267.45 261.275 267.759 261.543 268.132 261.681C268.514 261.811 268.916 261.876 269.339 261.876C269.656 261.876 269.916 261.859 270.119 261.827C270.322 261.786 270.484 261.754 270.606 261.729L271.191 264.313C270.996 264.386 270.724 264.459 270.374 264.532C270.025 264.613 269.582 264.654 269.046 264.654C268.234 264.654 267.438 264.479 266.658 264.13C265.886 263.781 265.245 263.249 264.733 262.534C264.229 261.819 263.977 260.917 263.977 259.829V241.21ZM278.453 253.151V264.41H275.577V239.456H278.453V248.619H278.697C279.135 247.652 279.793 246.884 280.671 246.316C281.556 245.739 282.734 245.451 284.204 245.451C285.48 245.451 286.597 245.706 287.555 246.218C288.514 246.722 289.257 247.498 289.785 248.545C290.321 249.585 290.589 250.909 290.589 252.518V264.41H287.714V252.713C287.714 251.226 287.328 250.077 286.556 249.264C285.792 248.444 284.732 248.034 283.376 248.034C282.433 248.034 281.589 248.233 280.841 248.631C280.102 249.029 279.517 249.61 279.087 250.373C278.664 251.137 278.453 252.063 278.453 253.151Z" fill="white"/>
<defs>
<filter id="filter0_d_2018_151" x="14.5" y="8.84082" width="409" height="430.714" filterUnits="userSpaceOnUse" color-interpolation-filters="sRGB">
<feFlood flood-opacity="0" result="BackgroundImageFix"/>
<feColorMatrix in="SourceAlpha" type="matrix" values="0 0 0 0 0 0 0 0 0 0 0 0 0 0 0 0 0 0 127 0" result="hardAlpha"/>
<feOffset dx="6" dy="4"/>
<feGaussianBlur stdDeviation="35"/>
<feComposite in2="hardAlpha" operator="out"/>
<feColorMatrix type="matrix" values="0 0 0 0 0.188235 0 0 0 0 0.482353 0 0 0 0 0.768627 0 0 0 0.09 0"/>
<feBlend mode="normal" in2="BackgroundImageFix" result="effect1_dropShadow_2018_151"/>
<feBlend mode="normal" in="SourceGraphic" in2="effect1_dropShadow_2018_151" result="shape"/>
</filter>
<clipPath id="clip0_2018_151">
<rect width="426" height="448" fill="white"/>
</clipPath>
<clipPath id="clip1_2018_151">
<rect width="49" height="51" fill="white" transform="translate(188.5 174.41)"/>
</clipPath>
<clipPath id="clip2_2018_151">
<rect width="49" height="51" fill="white" transform="translate(188.5 174.41)"/>
</clipPath>
<clipPath id="clip3_2018_151">
<rect width="49" height="51" fill="white" transform="translate(188.5 174.41)"/>
</clipPath>
</defs>
</svg>
