<svg width="15" height="11" viewBox="0 0 15 11" fill="none" xmlns="http://www.w3.org/2000/svg">
<g clip-path="url(#clip0_2018_202)">
<path d="M14.8004 5.60524L10.0276 10.1052C9.89901 10.2224 9.72677 10.2872 9.54801 10.2857C9.36921 10.2842 9.19821 10.2166 9.07179 10.0974C8.9454 9.97822 8.8737 9.81699 8.87211 9.64843C8.87057 9.47987 8.93931 9.31749 9.06351 9.19624L12.6724 5.7936H0.681823C0.500996 5.7936 0.327569 5.72589 0.199702 5.60533C0.071835 5.48477 0 5.32127 0 5.15074C0 4.98026 0.071835 4.81676 0.199702 4.6962C0.327569 4.57564 0.500996 4.50789 0.681823 4.50789H12.6724L9.06351 1.10526C8.99837 1.04595 8.94643 0.975022 8.91069 0.896589C8.87499 0.818156 8.85617 0.733801 8.85536 0.648442C8.85459 0.563083 8.87181 0.478436 8.9061 0.39943C8.94039 0.320425 8.99104 0.248649 9.05503 0.18829C9.11906 0.12793 9.19517 0.0801948 9.279 0.0478711C9.36279 0.0155482 9.45257 -0.000717161 9.54309 2.42514e-05C9.63364 0.000766484 9.72309 0.0185007 9.80627 0.052192C9.88946 0.0858837 9.96471 0.134857 10.0276 0.196257L14.8004 4.69624C14.9282 4.8168 15 4.9803 15 5.15074C15 5.32123 14.9282 5.48469 14.8004 5.60524Z" fill="white"/>
</g>
<defs>
<clipPath id="clip0_2018_202">
<rect width="15" height="10.2857" fill="white"/>
</clipPath>
</defs>
</svg>
