<svg width="20" height="20" viewBox="0 0 20 20" fill="none" xmlns="http://www.w3.org/2000/svg">
<rect width="20" height="20" rx="10" fill="white" fill-opacity="0.5"/>
<g clip-path="url(#clip0_2018_214)">
<path d="M9.99735 7.30488C8.50628 7.30488 7.30358 8.50723 7.30358 9.99785C7.30358 11.4885 8.50628 12.6908 9.99735 12.6908C11.4884 12.6908 12.6911 11.4885 12.6911 9.99785C12.6911 8.50723 11.4884 7.30488 9.99735 7.30488ZM9.99735 11.7486C9.03378 11.7486 8.24605 10.9635 8.24605 9.99785C8.24605 9.03223 9.03144 8.24707 9.99735 8.24707C10.9633 8.24707 11.7486 9.03223 11.7486 9.99785C11.7486 10.9635 10.9609 11.7486 9.99735 11.7486ZM13.4296 7.19473C13.4296 7.54395 13.1483 7.82285 12.8013 7.82285C12.452 7.82285 12.173 7.5416 12.173 7.19473C12.173 6.84785 12.4543 6.5666 12.8013 6.5666C13.1483 6.5666 13.4296 6.84785 13.4296 7.19473ZM15.2137 7.83223C15.1739 6.99082 14.9816 6.24551 14.365 5.63145C13.7508 5.01738 13.0053 4.8252 12.1636 4.78301C11.2962 4.73379 8.69618 4.73379 7.82874 4.78301C6.98943 4.82285 6.2439 5.01504 5.62731 5.6291C5.01072 6.24316 4.82082 6.98848 4.77862 7.82988C4.72939 8.69707 4.72939 11.2963 4.77862 12.1635C4.81848 13.0049 5.01072 13.7502 5.62731 14.3643C6.2439 14.9783 6.98709 15.1705 7.82874 15.2127C8.69618 15.2619 11.2962 15.2619 12.1636 15.2127C13.0053 15.1729 13.7508 14.9807 14.365 14.3643C14.9793 13.7502 15.1715 13.0049 15.2137 12.1635C15.263 11.2963 15.263 8.69941 15.2137 7.83223ZM14.0931 13.0939C13.9102 13.5533 13.5562 13.9072 13.0943 14.0924C12.4027 14.3666 10.7616 14.3033 9.99735 14.3033C9.23306 14.3033 7.58961 14.3643 6.90034 14.0924C6.44083 13.9096 6.08682 13.5557 5.90161 13.0939C5.62731 12.4025 5.69061 10.7619 5.69061 9.99785C5.69061 9.23379 5.62966 7.59082 5.90161 6.90176C6.08448 6.44238 6.43849 6.08848 6.90034 5.90332C7.59195 5.6291 9.23306 5.69238 9.99735 5.69238C10.7616 5.69238 12.4051 5.63145 13.0943 5.90332C13.5539 6.08613 13.9079 6.44004 14.0931 6.90176C14.3674 7.59316 14.3041 9.23379 14.3041 9.99785C14.3041 10.7619 14.3674 12.4049 14.0931 13.0939Z" fill="#307BC4"/>
</g>
<defs>
<clipPath id="clip0_2018_214">
<rect width="10.55" height="12" fill="white" transform="translate(4.71997 4)"/>
</clipPath>
</defs>
</svg>
