<svg width="20" height="20" viewBox="0 0 20 20" fill="none" xmlns="http://www.w3.org/2000/svg">
<rect width="20" height="20" rx="10" fill="#307BC4"/>
<path d="M13.375 8.875C13.375 7.97989 13.0194 7.12145 12.3865 6.48851C11.7536 5.85558 10.8951 5.5 10 5.5C9.10489 5.5 8.24645 5.85558 7.61351 6.48851C6.98058 7.12145 6.625 7.97989 6.625 8.875C6.625 10.2595 7.73275 12.064 10 14.2255C12.2673 12.064 13.375 10.2595 13.375 8.875ZM10 15.25C7.24975 12.7502 5.875 10.6248 5.875 8.875C5.875 7.78098 6.3096 6.73177 7.08318 5.95818C7.85677 5.1846 8.90598 4.75 10 4.75C11.094 4.75 12.1432 5.1846 12.9168 5.95818C13.6904 6.73177 14.125 7.78098 14.125 8.875C14.125 10.6248 12.7502 12.7502 10 15.25Z" fill="white"/>
<path d="M10 10C10.2984 10 10.5845 9.88147 10.7955 9.6705C11.0065 9.45952 11.125 9.17337 11.125 8.875C11.125 8.57663 11.0065 8.29048 10.7955 8.0795C10.5845 7.86853 10.2984 7.75 10 7.75C9.70163 7.75 9.41548 7.86853 9.2045 8.0795C8.99353 8.29048 8.875 8.57663 8.875 8.875C8.875 9.17337 8.99353 9.45952 9.2045 9.6705C9.41548 9.88147 9.70163 10 10 10ZM10 10.75C9.50272 10.75 9.02581 10.5525 8.67417 10.2008C8.32254 9.84919 8.125 9.37228 8.125 8.875C8.125 8.37772 8.32254 7.90081 8.67417 7.54917C9.02581 7.19754 9.50272 7 10 7C10.4973 7 10.9742 7.19754 11.3258 7.54917C11.6775 7.90081 11.875 8.37772 11.875 8.875C11.875 9.37228 11.6775 9.84919 11.3258 10.2008C10.9742 10.5525 10.4973 10.75 10 10.75Z" fill="white"/>
</svg>
