<svg width="20" height="20" viewBox="0 0 20 20" fill="none" xmlns="http://www.w3.org/2000/svg">
<rect width="20" height="20" rx="10" fill="#307BC4"/>
<path d="M7.52839 5.20866L8.11189 5.03316C8.43153 4.93677 8.77533 4.95998 9.07912 5.09844C9.38292 5.23691 9.62596 5.48117 9.76289 5.78566L10.2139 6.78866C10.3316 7.05056 10.3644 7.34275 10.3076 7.62423C10.2509 7.90571 10.1074 8.16236 9.89739 8.35816L9.14989 9.05466C9.12805 9.07501 9.11422 9.1025 9.11089 9.13216C9.08889 9.33066 9.22339 9.71716 9.53389 10.2547C9.75889 10.6452 9.96339 10.9197 10.1369 11.0732C10.2584 11.1807 10.3249 11.2037 10.3534 11.1957L11.3584 10.8882C11.6328 10.8042 11.9267 10.8082 12.1987 10.8997C12.4708 10.9912 12.7074 11.1655 12.8754 11.3982L13.5154 12.2862C13.7102 12.5561 13.8005 12.8877 13.7694 13.2191C13.7383 13.5506 13.588 13.8596 13.3464 14.0887L12.9029 14.5087C12.6678 14.7313 12.379 14.8893 12.0647 14.9672C11.7504 15.0451 11.4213 15.0402 11.1094 14.9532C9.73239 14.5687 8.49789 13.4067 7.39189 11.4912C6.28489 9.57316 5.89589 7.92116 6.25489 6.53466C6.33548 6.22283 6.49503 5.93701 6.71817 5.70476C6.94132 5.47251 7.22003 5.30165 7.52839 5.20866ZM7.74539 5.92716C7.56033 5.98281 7.39273 6.0852 7.25874 6.22444C7.12475 6.36369 7.02888 6.5351 6.98039 6.72216C6.67939 7.88816 7.02389 9.35266 8.04189 11.1162C9.05889 12.8772 10.1534 13.9077 11.3119 14.2312C11.499 14.2834 11.6965 14.2862 11.8851 14.2394C12.0736 14.1926 12.2469 14.0978 12.3879 13.9642L12.8309 13.5442C12.9408 13.4401 13.0092 13.2996 13.0233 13.1489C13.0375 12.9982 12.9965 12.8474 12.9079 12.7247L12.2679 11.8372C12.1915 11.7313 12.0839 11.6519 11.9602 11.6103C11.8364 11.5687 11.7027 11.5669 11.5779 11.6052L10.5704 11.9137C9.98539 12.0877 9.45489 11.6172 8.88489 10.6297C8.49989 9.96466 8.32089 9.44966 8.36589 9.04916C8.38889 8.84116 8.48589 8.64916 8.63839 8.50616L9.38589 7.80966C9.48131 7.72061 9.54647 7.60391 9.5722 7.47595C9.59794 7.34799 9.58297 7.21518 9.52939 7.09616L9.07889 6.09316C9.01664 5.95476 8.90615 5.84373 8.76806 5.7808C8.62996 5.71787 8.47368 5.70733 8.32839 5.75116L7.74539 5.92716Z" fill="white"/>
</svg>
