<svg width="20" height="20" viewBox="0 0 20 20" fill="none" xmlns="http://www.w3.org/2000/svg">
<rect width="20" height="20" rx="10" fill="white" fill-opacity="0.5"/>
<g clip-path="url(#clip0_2018_211)">
<path d="M7.09441 14.4998H4.9169V7.48961H7.09441V14.4998ZM6.00448 6.53336C5.30818 6.53336 4.74341 5.9568 4.74341 5.2607C4.74341 4.92634 4.87627 4.60568 5.11277 4.36925C5.34927 4.13282 5.67002 4 6.00448 4C6.33894 4 6.6597 4.13282 6.8962 4.36925C7.13269 4.60568 7.26556 4.92634 7.26556 5.2607C7.26556 5.9568 6.70055 6.53336 6.00448 6.53336ZM15.2442 14.4998H13.0713V11.0873C13.0713 10.274 13.0549 9.23102 11.9392 9.23102C10.8071 9.23102 10.6336 10.1146 10.6336 11.0287V14.4998H8.45841V7.48961H10.5468V8.44586H10.5773C10.868 7.89508 11.5782 7.31383 12.6376 7.31383C14.8414 7.31383 15.2465 8.76461 15.2465 10.649V14.4998H15.2442Z" fill="#307BC4"/>
</g>
<defs>
<clipPath id="clip0_2018_211">
<rect width="10.55" height="12" fill="white" transform="translate(4.71997 4)"/>
</clipPath>
</defs>
</svg>
