<svg width="35" height="30" viewBox="0 0 35 30" fill="none" xmlns="http://www.w3.org/2000/svg">
<g clip-path="url(#clip0_1_886)">
<path d="M0.483887 2.46544C0.483887 1.10383 1.14618 0 1.96315 0H33.5208C34.3377 0 35 1.10383 35 2.46544C35 3.82708 34.3377 4.93088 33.5208 4.93088H1.96315C1.14618 4.93088 0.483887 3.82708 0.483887 2.46544Z" fill="#274760"/>
<path d="M0.483887 14.6694C0.483887 13.3074 1.14618 12.2039 1.96315 12.2039H33.5208C34.3377 12.2039 35 13.3074 35 14.6694C35 16.0309 34.3377 17.1348 33.5208 17.1348H1.96315C1.14618 17.1348 0.483887 16.0309 0.483887 14.6694Z" fill="#274760"/>
<path d="M0.483887 26.6267C0.483887 25.2648 1.14618 24.1613 1.96315 24.1613H33.5208C34.3377 24.1613 35 25.2648 35 26.6267C35 27.9883 34.3377 29.0922 33.5208 29.0922H1.96315C1.14618 29.0922 0.483887 27.9883 0.483887 26.6267Z" fill="#274760"/>
</g>
<defs>
<clipPath id="clip0_1_886">
<rect width="35" height="30" fill="white"/>
</clipPath>
</defs>
</svg>
