<svg width="50" height="50" viewBox="0 0 50 50" fill="none" xmlns="http://www.w3.org/2000/svg">
<g clip-path="url(#clip0_1_27)">
<path d="M42.739 7.26089C32.8938 -2.48797 17.0097 -2.40994 7.26088 7.43526C-2.42029 17.2121 -2.42029 32.9623 7.26088 42.7392C17.1061 52.488 32.9902 52.41 42.739 42.5648C52.4202 32.788 52.4202 17.0377 42.739 7.26089ZM25 48.0713C12.2783 48.0713 1.92868 37.7217 1.92868 25C1.92868 12.2782 12.2782 1.9288 25 1.9288C37.7217 1.9288 48.0712 12.2784 48.0712 25.0001C48.0712 37.7218 37.7216 48.0713 25 48.0713Z" fill="#274760"/>
<path d="M38.5997 24.1265V24.1277L18.2309 12.368C17.7488 12.0897 17.1323 12.2548 16.854 12.737C16.7656 12.8901 16.719 13.0637 16.719 13.2405V36.7598C16.7192 37.3164 17.1708 37.7676 17.7274 37.7672C17.9042 37.7671 18.0779 37.7206 18.231 37.6322L38.5998 25.8725C39.082 25.5943 39.2472 24.9778 38.969 24.4956C38.8804 24.3423 38.7531 24.215 38.5997 24.1265Z" fill="#274760"/>
</g>
<defs>
<clipPath id="clip0_1_27">
<rect width="50" height="50" fill="white"/>
</clipPath>
</defs>
</svg>
