<svg width="30" height="30" viewBox="0 0 30 30" fill="none" xmlns="http://www.w3.org/2000/svg">
<g clip-path="url(#clip0_1_883)">
<path d="M13.1684 0C5.91146 0 0 5.90944 0 13.164C0 20.4184 5.91146 26.3394 13.1684 26.3394C16.2681 26.3394 19.1188 25.2535 21.3719 23.4505L26.8571 28.931C27.1339 29.1962 27.5036 29.3426 27.887 29.3386C28.2704 29.3347 28.6371 29.1809 28.9084 28.91C29.1797 28.6392 29.3342 28.2729 29.3386 27.8896C29.3431 27.5064 29.1972 27.1365 28.9322 26.8595L23.4471 21.3762C25.2521 19.1204 26.3397 16.2662 26.3397 13.164C26.3397 5.90944 20.4254 0 13.1684 0ZM13.1684 2.926C18.8435 2.926 23.4099 7.49078 23.4099 13.164C23.4099 18.8371 18.8435 23.4134 13.1684 23.4134C7.4933 23.4134 2.92695 18.8371 2.92695 13.164C2.92695 7.49078 7.4933 2.926 13.1684 2.926Z" fill="#274760"/>
</g>
<defs>
<clipPath id="clip0_1_883">
<rect width="30" height="30" fill="white"/>
</clipPath>
</defs>
</svg>
