<svg width="99" height="16" viewBox="0 0 99 16" fill="none" xmlns="http://www.w3.org/2000/svg">
<g clip-path="url(#clip0_1_459)">
<path d="M9.02694 0C9.31415 0 9.57639 0.1625 9.70126 0.421875L11.8429 4.8375L16.6256 5.54375C16.9065 5.58437 17.1407 5.78125 17.2281 6.05312C17.3155 6.325 17.2437 6.61875 17.0439 6.81875L13.5755 10.2625L14.3934 15.125C14.4403 15.4062 14.3248 15.6906 14.0906 15.8594C13.8565 16.0281 13.5505 16.0469 13.3008 15.9125L9.02381 13.625L4.7531 15.9094C4.50022 16.0438 4.19428 16.025 3.96326 15.8562C3.73224 15.6875 3.61361 15.4031 3.66044 15.1219L4.47837 10.2594L1.00997 6.81875C0.807051 6.61875 0.738369 6.32188 0.825782 6.05312C0.913194 5.78437 1.14733 5.5875 1.4283 5.54375L6.21101 4.8375L8.35261 0.421875C8.48061 0.1625 8.73972 0 9.02694 0ZM9.02694 2.46875L7.38795 5.85C7.27869 6.07188 7.06952 6.22813 6.8229 6.26562L3.12972 6.80937L5.81141 9.46875C5.98311 9.64062 6.06428 9.88437 6.0237 10.125L5.38996 13.8656L8.67417 12.1094C8.89582 11.9906 9.16118 11.9906 9.37971 12.1094L12.6639 13.8656L12.0333 10.1281C11.9927 9.8875 12.0708 9.64375 12.2456 9.47188L14.9273 6.8125L11.2341 6.26562C10.9906 6.22813 10.7783 6.075 10.669 5.85L9.02694 2.46875Z" fill="#307BC4"/>
</g>
<g clip-path="url(#clip1_1_459)">
<path d="M29.087 0C29.3742 0 29.6364 0.1625 29.7613 0.421875L31.9029 4.8375L36.6856 5.54375C36.9666 5.58437 37.2007 5.78125 37.2881 6.05312C37.3756 6.325 37.3038 6.61875 37.104 6.81875L33.6356 10.2625L34.4535 15.125C34.5003 15.4062 34.3848 15.6906 34.1507 15.8594C33.9165 16.0281 33.6106 16.0469 33.3608 15.9125L29.0839 13.625L24.8132 15.9094C24.5603 16.0438 24.2543 16.025 24.0233 15.8562C23.7923 15.6875 23.6737 15.4031 23.7205 15.1219L24.5384 10.2594L21.07 6.81875C20.8671 6.61875 20.7984 6.32188 20.8858 6.05312C20.9733 5.78437 21.2074 5.5875 21.4884 5.54375L26.2711 4.8375L28.4127 0.421875C28.5407 0.1625 28.7998 0 29.087 0ZM29.087 2.46875L27.448 5.85C27.3387 6.07188 27.1296 6.22813 26.883 6.26562L23.1898 6.80937L25.8715 9.46875C26.0432 9.64062 26.1243 9.88437 26.0838 10.125L25.45 13.8656L28.7342 12.1094C28.9559 11.9906 29.2212 11.9906 29.4398 12.1094L32.724 13.8656L32.0934 10.1281C32.0528 9.8875 32.1308 9.64375 32.3056 9.47188L34.9873 6.8125L31.2942 6.26562C31.0507 6.22813 30.8384 6.075 30.7291 5.85L29.087 2.46875Z" fill="#307BC4"/>
</g>
<g clip-path="url(#clip2_1_459)">
<path d="M49.1471 0C49.4343 0 49.6965 0.1625 49.8214 0.421875L51.963 4.8375L56.7457 5.54375C57.0267 5.58437 57.2608 5.78125 57.3482 6.05312C57.4356 6.325 57.3638 6.61875 57.164 6.81875L53.6956 10.2625L54.5135 15.125C54.5604 15.4062 54.4449 15.6906 54.2107 15.8594C53.9766 16.0281 53.6706 16.0469 53.4209 15.9125L49.1439 13.625L44.8732 15.9094C44.6203 16.0438 44.3144 16.025 44.0834 15.8562C43.8524 15.6875 43.7337 15.4031 43.7806 15.1219L44.5985 10.2594L41.1301 6.81875C40.9272 6.61875 40.8585 6.32188 40.9459 6.05312C41.0333 5.78437 41.2675 5.5875 41.5484 5.54375L46.3311 4.8375L48.4727 0.421875C48.6007 0.1625 48.8598 0 49.1471 0ZM49.1471 2.46875L47.5081 5.85C47.3988 6.07188 47.1896 6.22813 46.943 6.26562L43.2498 6.80937L45.9315 9.46875C46.1032 9.64062 46.1844 9.88437 46.1438 10.125L45.5101 13.8656L48.7943 12.1094C49.0159 11.9906 49.2813 11.9906 49.4998 12.1094L52.784 13.8656L52.1534 10.1281C52.1128 9.8875 52.1909 9.64375 52.3657 9.47188L55.0474 6.8125L51.3542 6.26562C51.1107 6.22813 50.8984 6.075 50.7892 5.85L49.1471 2.46875Z" fill="#307BC4"/>
</g>
<g clip-path="url(#clip3_1_459)">
<path d="M69.2069 0C69.4941 0 69.7563 0.1625 69.8812 0.421875L72.0228 4.8375L76.8055 5.54375C77.0865 5.58437 77.3206 5.78125 77.408 6.05312C77.4954 6.325 77.4236 6.61875 77.2238 6.81875L73.7554 10.2625L74.5734 15.125C74.6202 15.4062 74.5047 15.6906 74.2705 15.8594C74.0364 16.0281 73.7305 16.0469 73.4807 15.9125L69.2037 13.625L64.933 15.9094C64.6802 16.0438 64.3742 16.025 64.1432 15.8562C63.9122 15.6875 63.7935 15.4031 63.8404 15.1219L64.6583 10.2594L61.1899 6.81875C60.987 6.61875 60.9183 6.32188 61.0057 6.05312C61.0931 5.78437 61.3273 5.5875 61.6082 5.54375L66.3909 4.8375L68.5325 0.421875C68.6605 0.1625 68.9197 0 69.2069 0ZM69.2069 2.46875L67.5679 5.85C67.4586 6.07188 67.2495 6.22813 67.0028 6.26562L63.3097 6.80937L65.9913 9.46875C66.163 9.64062 66.2442 9.88437 66.2036 10.125L65.5699 13.8656L68.8541 12.1094C69.0758 11.9906 69.3411 11.9906 69.5596 12.1094L72.8438 13.8656L72.2132 10.1281C72.1726 9.8875 72.2507 9.64375 72.4255 9.47188L75.1072 6.8125L71.414 6.26562C71.1705 6.22813 70.9582 6.075 70.849 5.85L69.2069 2.46875Z" fill="#307BC4"/>
</g>
<g clip-path="url(#clip4_1_459)">
<path d="M89.2669 0C89.5541 0 89.8164 0.1625 89.9413 0.421875L92.0829 4.8375L96.8656 5.54375C97.1465 5.58437 97.3807 5.78125 97.4681 6.05312C97.5555 6.325 97.4837 6.61875 97.2839 6.81875L93.8155 10.2625L94.6334 15.125C94.6803 15.4062 94.5647 15.6906 94.3306 15.8594C94.0965 16.0281 93.7905 16.0469 93.5408 15.9125L89.2638 13.625L84.9931 15.9094C84.7402 16.0438 84.4343 16.025 84.2033 15.8562C83.9722 15.6875 83.8536 15.4031 83.9004 15.1219L84.7184 10.2594L81.25 6.81875C81.047 6.61875 80.9784 6.32188 81.0658 6.05312C81.1532 5.78437 81.3873 5.5875 81.6683 5.54375L86.451 4.8375L88.5926 0.421875C88.7206 0.1625 88.9797 0 89.2669 0ZM89.2669 2.46875L87.6279 5.85C87.5187 6.07188 87.3095 6.22813 87.0629 6.26562L83.3697 6.80937L86.0514 9.46875C86.2231 9.64062 86.3043 9.88437 86.2637 10.125L85.6299 13.8656L88.9142 12.1094C89.1358 11.9906 89.4012 11.9906 89.6197 12.1094L92.9039 13.8656L92.2733 10.1281C92.2327 9.8875 92.3108 9.64375 92.4856 9.47188L95.1673 6.8125L91.4741 6.26562C91.2306 6.22813 91.0183 6.075 90.909 5.85L89.2669 2.46875Z" fill="#307BC4"/>
</g>
<g clip-path="url(#clip5_1_459)">
<g clip-path="url(#clip6_1_459)">
<path d="M9.9322 0.5625C9.76674 0.21875 9.41709 0 9.0331 0C8.64911 0 8.30259 0.21875 8.13401 0.5625L6.12664 4.69688L1.64364 5.35938C1.26901 5.41563 0.956824 5.67812 0.841315 6.0375C0.725806 6.39687 0.819462 6.79375 1.08794 7.05937L4.34093 10.2812L3.57295 14.8344C3.51051 15.2094 3.66661 15.5906 3.97567 15.8125C4.28474 16.0344 4.6937 16.0625 5.03087 15.8844L9.03623 13.7437L13.0416 15.8844C13.3787 16.0625 13.7877 16.0375 14.0968 15.8125C14.4058 15.5875 14.5619 15.2094 14.4995 14.8344L13.7284 10.2812L16.9814 7.05937C17.2499 6.79375 17.3466 6.39687 17.228 6.0375C17.1094 5.67812 16.8003 5.41563 16.4257 5.35938L11.9396 4.69688L9.9322 0.5625Z" fill="#307BC4"/>
</g>
<g clip-path="url(#clip7_1_459)">
<path d="M29.9923 0.5625C29.8268 0.21875 29.4772 0 29.0932 0C28.7092 0 28.3626 0.21875 28.1941 0.5625L26.1867 4.69688L21.7037 5.35938C21.3291 5.41563 21.0169 5.67812 20.9014 6.0375C20.7859 6.39687 20.8795 6.79375 21.148 7.05937L24.401 10.2812L23.633 14.8344C23.5706 15.2094 23.7267 15.5906 24.0357 15.8125C24.3448 16.0344 24.7538 16.0625 25.0909 15.8844L29.0963 13.7437L33.1016 15.8844C33.4388 16.0625 33.8478 16.0375 34.1568 15.8125C34.4659 15.5875 34.622 15.2094 34.5596 14.8344L33.7885 10.2812L37.0414 7.05937C37.3099 6.79375 37.4067 6.39687 37.2881 6.0375C37.1694 5.67812 36.8604 5.41563 36.4858 5.35938L31.9996 4.69688L29.9923 0.5625Z" fill="#307BC4"/>
</g>
<g clip-path="url(#clip8_1_459)">
<path d="M50.0621 0.5625C49.8966 0.21875 49.547 0 49.163 0C48.779 0 48.4325 0.21875 48.2639 0.5625L46.2565 4.69688L41.7735 5.35938C41.3989 5.41563 41.0867 5.67812 40.9712 6.0375C40.8557 6.39687 40.9493 6.79375 41.2178 7.05937L44.4708 10.2812L43.7028 14.8344C43.6404 15.2094 43.7965 15.5906 44.1056 15.8125C44.4146 16.0344 44.8236 16.0625 45.1607 15.8844L49.1661 13.7437L53.1715 15.8844C53.5086 16.0625 53.9176 16.0375 54.2267 15.8125C54.5357 15.5875 54.6918 15.2094 54.6294 14.8344L53.8583 10.2812L57.1113 7.05937C57.3798 6.79375 57.4765 6.39687 57.3579 6.0375C57.2393 5.67812 56.9302 5.41563 56.5556 5.35938L52.0694 4.69688L50.0621 0.5625Z" fill="#307BC4"/>
</g>
<g clip-path="url(#clip9_1_459)">
<path d="M70.1221 0.5625C69.9567 0.21875 69.607 0 69.223 0C68.8391 0 68.4925 0.21875 68.3239 0.5625L66.3166 4.69688L61.8336 5.35938C61.459 5.41563 61.1468 5.67812 61.0313 6.0375C60.9157 6.39687 61.0094 6.79375 61.2779 7.05937L64.5309 10.2812L63.7629 14.8344C63.7005 15.2094 63.8565 15.5906 64.1656 15.8125C64.4747 16.0344 64.8836 16.0625 65.2208 15.8844L69.2262 13.7437L73.2315 15.8844C73.5687 16.0625 73.9777 16.0375 74.2867 15.8125C74.5958 15.5875 74.7519 15.2094 74.6894 14.8344L73.9183 10.2812L77.1713 7.05937C77.4398 6.79375 77.5366 6.39687 77.418 6.0375C77.2993 5.67812 76.9903 5.41563 76.6156 5.35938L72.1295 4.69688L70.1221 0.5625Z" fill="#307BC4"/>
</g>
<g clip-path="url(#clip10_1_459)">
<path d="M90.1822 0.5625C90.0167 0.21875 89.6671 0 89.2831 0C88.8991 0 88.5526 0.21875 88.384 0.5625L86.3766 4.69688L81.8936 5.35938C81.519 5.41563 81.2068 5.67812 81.0913 6.0375C80.9758 6.39687 81.0695 6.79375 81.3379 7.05937L84.5909 10.2812L83.823 14.8344C83.7605 15.2094 83.9166 15.5906 84.2257 15.8125C84.5347 16.0344 84.9437 16.0625 85.2809 15.8844L89.2862 13.7437L93.2916 15.8844C93.6287 16.0625 94.0377 16.0375 94.3468 15.8125C94.6558 15.5875 94.8119 15.2094 94.7495 14.8344L93.9784 10.2812L97.2314 7.05937C97.4999 6.79375 97.5966 6.39687 97.478 6.0375C97.3594 5.67812 97.0503 5.41563 96.6757 5.35938L92.1896 4.69688L90.1822 0.5625Z" fill="#307BC4"/>
</g>
</g>
<defs>
<clipPath id="clip0_1_459">
<rect width="18.06" height="16" fill="white"/>
</clipPath>
<clipPath id="clip1_1_459">
<rect width="18.06" height="16" fill="white" transform="translate(20.0601)"/>
</clipPath>
<clipPath id="clip2_1_459">
<rect width="18.06" height="16" fill="white" transform="translate(40.1201)"/>
</clipPath>
<clipPath id="clip3_1_459">
<rect width="18.06" height="16" fill="white" transform="translate(60.1799)"/>
</clipPath>
<clipPath id="clip4_1_459">
<rect width="18.06" height="16" fill="white" transform="translate(80.24)"/>
</clipPath>
<clipPath id="clip5_1_459">
<rect width="89.09" height="16" fill="white"/>
</clipPath>
<clipPath id="clip6_1_459">
<rect width="18.06" height="16" fill="white"/>
</clipPath>
<clipPath id="clip7_1_459">
<rect width="18.06" height="16" fill="white" transform="translate(20.0601)"/>
</clipPath>
<clipPath id="clip8_1_459">
<rect width="18.06" height="16" fill="white" transform="translate(40.1299)"/>
</clipPath>
<clipPath id="clip9_1_459">
<rect width="18.06" height="16" fill="white" transform="translate(60.1899)"/>
</clipPath>
<clipPath id="clip10_1_459">
<rect width="18.06" height="16" fill="white" transform="translate(80.25)"/>
</clipPath>
</defs>
</svg>
