<svg width="203" height="45" viewBox="0 0 203 45" fill="none" xmlns="http://www.w3.org/2000/svg">
<rect x="71.9199" width="45" height="45" rx="22.5" fill="#307BC4"/>
<g clip-path="url(#clip0_1_140)">
<g clip-path="url(#clip1_1_140)">
<g clip-path="url(#clip2_1_140)">
<path d="M88.4724 20.3025C88.4724 20.3609 88.4844 20.4188 88.5077 20.4727C88.531 20.5267 88.5652 20.5757 88.6083 20.617C88.6515 20.6583 88.7027 20.6911 88.759 20.7134C88.8153 20.7358 88.8757 20.7473 88.9367 20.7472H91.6539C91.7149 20.7473 91.7753 20.7358 91.8316 20.7134C91.8879 20.6911 91.9391 20.6583 91.9822 20.617C92.0254 20.5757 92.0596 20.5267 92.0829 20.4727C92.1062 20.4188 92.1182 20.3609 92.1182 20.3025V18.1051C92.7261 18.0007 93.2762 17.6949 93.6725 17.2413C94.0688 16.7876 94.2859 16.2149 94.2859 15.6234C94.2859 15.0319 94.0688 14.4592 93.6725 14.0055C93.2762 13.5519 92.7261 13.2461 92.1182 13.1417V10.9447C92.1182 10.8863 92.1062 10.8285 92.0829 10.7745C92.0596 10.7205 92.0254 10.6715 91.9822 10.6302C91.9391 10.5889 91.8879 10.5562 91.8316 10.5338C91.7753 10.5115 91.7149 10.5 91.6539 10.5H83.4632C82.9215 10.5005 82.4021 10.7068 82.0191 11.0737C81.636 11.4406 81.4205 11.938 81.4199 12.4569V20.3025C81.4199 20.3609 81.4319 20.4188 81.4552 20.4727C81.4786 20.5267 81.5128 20.5757 81.5559 20.617C81.599 20.6583 81.6502 20.6911 81.7065 20.7134C81.7629 20.7358 81.8232 20.7473 81.8842 20.7472H84.6015C84.6624 20.7473 84.7228 20.7358 84.7792 20.7134C84.8355 20.6911 84.8867 20.6583 84.9298 20.617C84.9729 20.5757 85.0071 20.5267 85.0304 20.4727C85.0538 20.4188 85.0658 20.3609 85.0657 20.3025C85.0707 19.8729 85.2523 19.4625 85.5712 19.1604C85.8901 18.8583 86.3205 18.6888 86.7691 18.6888C87.2176 18.6888 87.6481 18.8583 87.967 19.1604C88.2859 19.4625 88.4675 19.8729 88.4724 20.3025ZM84.1782 19.8578H82.3485V12.4569C82.3489 12.1738 82.4665 11.9025 82.6754 11.7024C82.8844 11.5023 83.1677 11.3897 83.4632 11.3894H91.1896V13.5473C91.1896 13.6057 91.2016 13.6636 91.225 13.7175C91.2483 13.7715 91.2825 13.8205 91.3256 13.8618C91.3687 13.9031 91.4199 13.9359 91.4762 13.9582C91.5326 13.9806 91.5929 13.992 91.6539 13.992C92.1023 13.9969 92.5307 14.1709 92.846 14.4763C93.1613 14.7817 93.3381 15.1939 93.3381 15.6234C93.3381 16.053 93.1613 16.4651 92.8459 16.7706C92.5306 17.076 92.1023 17.25 91.6539 17.2548C91.5929 17.2548 91.5325 17.2663 91.4762 17.2886C91.4199 17.3109 91.3687 17.3437 91.3256 17.385C91.2825 17.4263 91.2483 17.4753 91.2249 17.5293C91.2016 17.5832 91.1896 17.6411 91.1896 17.6995V19.8578H89.3599C89.2466 19.279 88.9256 18.7564 88.4525 18.3803C87.9794 18.0043 87.3839 17.7984 86.7691 17.7984C86.1543 17.7984 85.5588 18.0043 85.0857 18.3803C84.6125 18.7564 84.2915 19.279 84.1782 19.8578Z" fill="white"/>
<path d="M105.377 15.179H97.1859C97.1249 15.1789 97.0645 15.1904 97.0082 15.2128C96.9518 15.2351 96.9007 15.2679 96.8575 15.3092C96.8144 15.3505 96.7802 15.3995 96.7569 15.4535C96.7336 15.5074 96.7216 15.5652 96.7216 15.6237V18.2263C96.7216 18.2847 96.7336 18.3425 96.7569 18.3965C96.7802 18.4504 96.8144 18.4995 96.8575 18.5408C96.9007 18.5821 96.9518 18.6148 97.0082 18.6372C97.0645 18.6595 97.1249 18.671 97.1859 18.671C97.6343 18.6758 98.0627 18.8497 98.3781 19.1552C98.6934 19.4606 98.8703 19.8728 98.8703 20.3024C98.8703 20.7319 98.6934 21.1442 98.378 21.4496C98.0627 21.755 97.6343 21.929 97.1858 21.9337C97.1249 21.9337 97.0645 21.9452 97.0081 21.9676C96.9518 21.9899 96.9006 22.0227 96.8575 22.064C96.8144 22.1053 96.7802 22.1543 96.7569 22.2082C96.7336 22.2622 96.7216 22.32 96.7216 22.3784V24.2528H94.8916C94.7826 23.6707 94.4634 23.1438 93.9898 22.7643C93.5162 22.3849 92.9184 22.1769 92.3009 22.1769C91.6834 22.1769 91.0856 22.3849 90.6121 22.7643C90.1385 23.1438 89.8192 23.6707 89.7102 24.2528H87.4159C87.355 24.2528 87.2946 24.2643 87.2382 24.2866C87.1819 24.3089 87.1307 24.3417 87.0876 24.383C87.0445 24.4243 87.0103 24.4733 86.987 24.5273C86.9636 24.5812 86.9516 24.6391 86.9517 24.6975V32.5432C86.9523 33.062 87.1677 33.5595 87.5508 33.9263C87.9339 34.2932 88.4532 34.4995 88.9949 34.5H105.377C105.918 34.4995 106.438 34.2932 106.821 33.9263C107.204 33.5595 107.419 33.062 107.42 32.5432V17.1358C107.419 16.617 107.204 16.1195 106.821 15.7527C106.438 15.3858 105.918 15.1795 105.377 15.179ZM99.8177 20.3026C99.8169 19.7113 99.5996 19.139 99.2035 18.6854C98.8074 18.2319 98.2577 17.9258 97.6502 17.8207V16.0684H105.377C105.672 16.0687 105.955 16.1812 106.164 16.3814C106.373 16.5815 106.491 16.8528 106.491 17.1358V24.2528H104.238C104.177 24.2528 104.117 24.2643 104.061 24.2866C104.004 24.3089 103.953 24.3417 103.91 24.383C103.867 24.4243 103.833 24.4733 103.809 24.5273C103.786 24.5812 103.774 24.6391 103.774 24.6975C103.769 25.127 103.587 25.5373 103.269 25.8393C102.95 26.1414 102.519 26.3108 102.071 26.3108C101.622 26.3108 101.192 26.1414 100.873 25.8393C100.554 25.5373 100.372 25.127 100.367 24.6974C100.367 24.639 100.355 24.5812 100.332 24.5272C100.309 24.4733 100.275 24.4243 100.231 24.383C100.188 24.3417 100.137 24.3089 100.081 24.2866C100.025 24.2643 99.9641 24.2528 99.9031 24.2528H97.6502V22.784C98.2576 22.6789 98.8073 22.373 99.2034 21.9195C99.5995 21.466 99.8169 20.8938 99.8177 20.3026ZM87.8802 32.5432V25.1422H90.1334C90.1944 25.1422 90.2548 25.1307 90.3111 25.1084C90.3674 25.086 90.4186 25.0533 90.4617 25.012C90.5049 24.9707 90.5391 24.9216 90.5624 24.8677C90.5857 24.8137 90.5977 24.7559 90.5977 24.6975C90.5984 24.2653 90.7782 23.851 91.0976 23.5457C91.4169 23.2403 91.8497 23.0688 92.3009 23.0688C92.7521 23.0688 93.1849 23.2403 93.5042 23.5457C93.8236 23.851 94.0034 24.2653 94.0041 24.6975C94.0041 24.7559 94.0161 24.8137 94.0394 24.8677C94.0627 24.9216 94.0969 24.9707 94.14 25.012C94.1832 25.0533 94.2344 25.086 94.2907 25.1084C94.347 25.1307 94.4074 25.1422 94.4684 25.1422H96.7216V26.8949C96.1137 26.9993 95.5635 27.3051 95.1672 27.7588C94.771 28.2124 94.5538 28.7851 94.5538 29.3766C94.5538 29.9681 94.771 30.5408 95.1672 30.9945C95.5635 31.4481 96.1137 31.7539 96.7216 31.8583V33.6106H88.9949C88.6994 33.6103 88.4161 33.4977 88.2072 33.2976C87.9982 33.0975 87.8806 32.8262 87.8802 32.5432ZM105.377 33.6106H97.6502V31.4527C97.6502 31.3943 97.6382 31.3365 97.6149 31.2825C97.5915 31.2285 97.5573 31.1795 97.5142 31.1382C97.4711 31.0969 97.4199 31.0641 97.3636 31.0418C97.3072 31.0195 97.2469 31.008 97.1859 31.008C96.7342 31.008 96.3009 30.8361 95.9815 30.5302C95.6621 30.2242 95.4827 29.8093 95.4827 29.3766C95.4827 28.944 95.6621 28.529 95.9815 28.2231C96.3009 27.9171 96.7342 27.7452 97.1859 27.7452C97.2469 27.7453 97.3072 27.7338 97.3636 27.7114C97.4199 27.6891 97.4711 27.6563 97.5142 27.615C97.5573 27.5737 97.5915 27.5247 97.6149 27.4707C97.6382 27.4168 97.6502 27.359 97.6502 27.3005V25.4258H99.4799C99.5888 26.008 99.9081 26.535 100.382 26.9145C100.855 27.2941 101.453 27.5021 102.071 27.5021C102.688 27.5021 103.286 27.2941 103.76 26.9145C104.233 26.535 104.553 26.008 104.662 25.4258H106.491V32.5432C106.491 32.8262 106.373 33.0975 106.164 33.2976C105.955 33.4977 105.672 33.6103 105.377 33.6106Z" fill="white"/>
</g>
</g>
</g>
<defs>
<clipPath id="clip0_1_140">
<rect width="26" height="24" fill="white" transform="translate(81.4199 10.5)"/>
</clipPath>
<clipPath id="clip1_1_140">
<rect width="26" height="24" fill="white" transform="translate(81.4199 10.5)"/>
</clipPath>
<clipPath id="clip2_1_140">
<rect width="26" height="24" fill="white" transform="translate(81.4199 10.5)"/>
</clipPath>
</defs>
</svg>
