<svg width="174" height="45" viewBox="0 0 174 45" fill="none" xmlns="http://www.w3.org/2000/svg">
<rect x="57.1399" width="45" height="45" rx="22.5" fill="#307BC4"/>
<g clip-path="url(#clip0_1_119)">
<g clip-path="url(#clip1_1_119)">
<g clip-path="url(#clip2_1_119)">
<path d="M81.265 35.5H78.015C77.2566 35.5 76.39 34.85 76.39 33.55V31.275C76.39 30.1916 75.8483 29.2166 74.9816 28.4583C73.0316 26.9416 72.0566 24.775 72.0566 22.3916C72.165 18.275 75.5233 15.025 79.5316 14.9166C81.59 14.9166 83.54 15.675 84.9483 17.0833C86.3566 18.4916 87.2233 20.4416 87.2233 22.5C87.2233 24.775 86.2483 26.9416 84.4066 28.35C83.4316 29.1083 82.89 30.3 82.89 31.3833V33.875C82.89 34.7416 82.1316 35.5 81.265 35.5ZM79.64 16C76.1733 16 73.2483 18.925 73.14 22.3916C73.14 24.45 74.0066 26.4 75.6316 27.5916C76.8233 28.5666 77.4733 29.8666 77.4733 31.275V33.55C77.4733 33.7666 77.4733 34.4166 78.015 34.4166H81.265C81.59 34.4166 81.8066 34.2 81.8066 33.875V31.3833C81.8066 29.975 82.565 28.4583 83.7566 27.4833C85.2733 26.2916 86.14 24.45 86.14 22.5C86.14 20.7666 85.49 19.1416 84.19 17.8416C82.9983 16.65 81.3733 16 79.64 16Z" fill="white"/>
<path d="M82.3482 32.25H76.9316C76.6066 32.25 76.3899 32.0333 76.3899 31.7083C76.3899 31.3833 76.6066 31.1666 76.9316 31.1666H82.3482C82.6732 31.1666 82.8899 31.3833 82.8899 31.7083C82.8899 32.0333 82.6732 32.25 82.3482 32.25Z" fill="white"/>
<path d="M79.6397 12.75C79.3147 12.75 79.0981 12.5333 79.0981 12.2083V10.0417C79.0981 9.71667 79.3147 9.5 79.6397 9.5C79.9647 9.5 80.1814 9.71667 80.1814 10.0417V12.2083C80.1814 12.5333 79.9647 12.75 79.6397 12.75Z" fill="white"/>
<path d="M86.8983 15.7834C86.79 15.7834 86.5733 15.7834 86.465 15.6751C86.2483 15.4584 86.2483 15.1334 86.465 14.9167L87.9817 13.4001C88.1983 13.1834 88.5233 13.1834 88.74 13.4001C88.9567 13.6167 88.9567 13.9417 88.74 14.1584L87.2233 15.6751C87.2233 15.6751 87.0067 15.7834 86.8983 15.7834Z" fill="white"/>
<path d="M92.0982 23.0417H89.9316C89.6066 23.0417 89.3899 22.825 89.3899 22.5C89.3899 22.175 89.6066 21.9584 89.9316 21.9584H92.0982C92.4232 21.9584 92.6399 22.175 92.6399 22.5C92.6399 22.825 92.4232 23.0417 92.0982 23.0417Z" fill="white"/>
<path d="M88.415 31.8167C88.3067 31.8167 88.09 31.8167 87.9817 31.7084L86.465 30.1917C86.2483 29.975 86.2483 29.65 86.465 29.4334C86.6817 29.2167 87.0067 29.2167 87.2233 29.4334L88.74 30.95C88.9567 31.1667 88.9567 31.4917 88.74 31.7084C88.74 31.8167 88.6317 31.8167 88.415 31.8167Z" fill="white"/>
<path d="M70.8651 31.8167C70.7568 31.8167 70.5401 31.8167 70.4318 31.7084C70.2151 31.4917 70.2151 31.1667 70.4318 30.95L71.9485 29.4334C72.1651 29.2167 72.4901 29.2167 72.7068 29.4334C72.9235 29.65 72.9235 29.975 72.7068 30.1917L71.1901 31.7084C71.0818 31.8167 70.9735 31.8167 70.8651 31.8167Z" fill="white"/>
<path d="M69.3482 23.0417H67.1816C66.8566 23.0417 66.6399 22.825 66.6399 22.5C66.6399 22.175 66.8566 21.9584 67.1816 21.9584H69.3482C69.6732 21.9584 69.8899 22.175 69.8899 22.5C69.8899 22.825 69.6732 23.0417 69.3482 23.0417Z" fill="white"/>
<path d="M72.3818 15.7833C72.2735 15.7833 72.0568 15.7833 71.9485 15.675L70.4318 14.05C70.2151 13.8333 70.2151 13.5083 70.4318 13.2917C70.6485 13.075 70.9735 13.075 71.1901 13.2917L72.7068 14.8083C72.9235 15.025 72.9235 15.35 72.7068 15.5667C72.5985 15.675 72.4901 15.7833 72.3818 15.7833Z" fill="white"/>
<path d="M83.9731 23.0417C83.6481 23.0417 83.4314 22.825 83.4314 22.5C83.4314 20.4417 81.6981 18.7083 79.6397 18.7083C79.3147 18.7083 79.0981 18.4917 79.0981 18.1667C79.0981 17.8417 79.3147 17.625 79.6397 17.625C82.3481 17.625 84.5147 19.7917 84.5147 22.5C84.5147 22.825 84.2981 23.0417 83.9731 23.0417Z" fill="white"/>
</g>
</g>
</g>
<defs>
<clipPath id="clip0_1_119">
<rect width="26" height="26" fill="white" transform="translate(66.6399 9.5)"/>
</clipPath>
<clipPath id="clip1_1_119">
<rect width="26" height="26" fill="white" transform="translate(66.6399 9.5)"/>
</clipPath>
<clipPath id="clip2_1_119">
<rect width="26" height="26" fill="white" transform="translate(66.6399 9.5)"/>
</clipPath>
</defs>
</svg>
